<svg width="24" height="24" viewBox="0 0 24 24" fill="none" xmlns="http://www.w3.org/2000/svg">
<path d="M15.086 12.469C15.0245 12.546 14.9483 12.6101 14.862 12.6577C14.7756 12.7053 14.6808 12.7354 14.5828 12.7462C14.4848 12.7571 14.3856 12.7485 14.2909 12.721C14.1963 12.6936 14.1079 12.6477 14.031 12.586L12.751 11.56V15C12.751 15.1989 12.672 15.3897 12.5313 15.5303C12.3907 15.671 12.1999 15.75 12.001 15.75C11.8021 15.75 11.6113 15.671 11.4707 15.5303C11.33 15.3897 11.251 15.1989 11.251 15V11.56L9.96901 12.586C9.81359 12.7103 9.61518 12.7677 9.41742 12.7456C9.21966 12.7236 9.03876 12.6239 8.91451 12.4685C8.79025 12.3131 8.73283 12.1147 8.75486 11.9169C8.7769 11.7192 8.87659 11.5383 9.032 11.414L11.529 9.416C11.6623 9.30827 11.8286 9.24966 12 9.25H12.002C12.182 9.25 12.346 9.314 12.475 9.42L14.969 11.414C15.046 11.4755 15.1102 11.5517 15.1577 11.638C15.2053 11.7244 15.2354 11.8193 15.2462 11.9172C15.2571 12.0152 15.2485 12.1144 15.2211 12.2091C15.1936 12.3038 15.1477 12.3921 15.086 12.469Z" fill="#1E1E1E"/>
<path fill-rule="evenodd" clip-rule="evenodd" d="M8.38002 7.194C8.99714 6.23356 9.90226 5.49296 10.9659 5.07818C12.0295 4.6634 13.197 4.59571 14.3014 4.88479C15.4058 5.17388 16.3905 5.80492 17.1144 6.68761C17.8384 7.5703 18.2646 8.65938 18.332 9.799C18.9291 9.77088 19.5258 9.8626 20.0869 10.0687C20.648 10.2749 21.1621 10.5912 21.599 10.9992C22.0359 11.4072 22.3866 11.8985 22.6306 12.4442C22.8746 12.9899 23.0069 13.5789 23.0196 14.1765C23.0324 14.7741 22.9254 15.3683 22.7049 15.9239C22.4844 16.4795 22.1549 16.9853 21.7358 17.4115C21.3167 17.8378 20.8166 18.1758 20.2648 18.4057C19.713 18.6355 19.1208 18.7526 18.523 18.75H6.87502C6.04008 18.7489 5.21497 18.5699 4.45468 18.2248C3.69439 17.8797 3.01638 17.3766 2.46584 16.7488C1.91531 16.1211 1.50489 15.3833 1.26195 14.5845C1.01901 13.7856 0.949123 12.9442 1.05695 12.1163C1.16478 11.2883 1.44784 10.4929 1.88728 9.78295C2.32671 9.07301 2.91242 8.46488 3.60537 7.99911C4.29831 7.53334 5.08258 7.22062 5.90589 7.08179C6.7292 6.94296 7.57265 6.98122 8.38002 7.194ZM12.932 6.208C12.1958 6.20782 11.4744 6.41552 10.851 6.80719C10.2276 7.19887 9.72738 7.75861 9.40802 8.422C9.326 8.59187 9.18299 8.7246 9.00747 8.79373C8.83196 8.86286 8.63685 8.86331 8.46102 8.795C7.86202 8.56314 7.21931 8.46602 6.57855 8.51052C5.93779 8.55503 5.31468 8.74009 4.75349 9.05254C4.1923 9.36499 3.7068 9.79718 3.33145 10.3184C2.95611 10.8396 2.70014 11.4371 2.58172 12.0684C2.4633 12.6997 2.48534 13.3493 2.64626 13.9712C2.80719 14.593 3.10307 15.1717 3.51287 15.6663C3.92267 16.1609 4.43635 16.5592 5.01743 16.8329C5.5985 17.1066 6.23271 17.249 6.87502 17.25H18.523C18.9468 17.2499 19.3657 17.1593 19.7516 16.9843C20.1376 16.8093 20.4818 16.554 20.7612 16.2353C21.0406 15.9167 21.2487 15.5421 21.3718 15.1365C21.4948 14.731 21.5298 14.3039 21.4746 13.8837C21.4193 13.4635 21.275 13.06 21.0513 12.7001C20.8276 12.3401 20.5297 12.0321 20.1774 11.7965C19.8252 11.5609 19.4267 11.4033 19.0086 11.334C18.5905 11.2648 18.1624 11.2856 17.753 11.395C17.6347 11.4267 17.5105 11.429 17.3911 11.4016C17.2718 11.3742 17.1609 11.318 17.0683 11.2379C16.9757 11.1578 16.9041 11.0562 16.8598 10.942C16.8154 10.8279 16.7997 10.7046 16.814 10.583C16.8796 10.0343 16.8281 9.47794 16.663 8.95059C16.4979 8.42324 16.2228 7.93688 15.856 7.52358C15.4892 7.11028 15.0389 6.77943 14.5349 6.55283C14.0309 6.32624 13.4846 6.20806 12.932 6.208Z" fill="#1E1E1E"/>
</svg>
